<svg width="20" height="23" viewBox="0 0 20 23" fill="none" xmlns="http://www.w3.org/2000/svg">
<path fill-rule="evenodd" clip-rule="evenodd" d="M9.99994 0.515625C8.40864 0.515625 6.88252 1.14777 5.7573 2.27298C4.63208 3.3982 3.99994 4.92433 3.99994 6.51562V8.39062L3.09994 7.71562C2.99489 7.63683 2.87534 7.5795 2.74812 7.54691C2.62091 7.51432 2.48852 7.5071 2.35852 7.52568C2.22852 7.54425 2.10345 7.58824 1.99045 7.65515C1.87745 7.72206 1.77874 7.81057 1.69994 7.91562C1.62115 8.02068 1.56382 8.14023 1.53123 8.26744C1.49864 8.39466 1.49142 8.52704 1.50999 8.65705C1.52857 8.78705 1.57256 8.91212 1.63947 9.02512C1.70638 9.13812 1.79489 9.23683 1.89994 9.31563L3.76594 10.7156C3.32194 11.8836 2.23894 13.1056 0.485943 14.1586C0.370961 14.2292 0.271283 14.3221 0.192793 14.4318C0.114303 14.5416 0.0585931 14.6659 0.0289515 14.7975C-0.000690179 14.9291 -0.00366262 15.0654 0.0202096 15.1981C0.0440818 15.3309 0.0943149 15.4576 0.167943 15.5706C1.28594 17.2476 3.05994 18.5156 4.99994 18.5156C6.78394 18.5156 8.00694 20.5156 9.99994 20.5156C12.0109 20.5156 13.2089 18.5156 14.9999 18.5156C16.9399 18.5156 18.7139 17.2476 19.8319 15.5706C19.9056 15.4576 19.9558 15.3309 19.9797 15.1981C20.0035 15.0654 20.0006 14.9291 19.9709 14.7975C19.9413 14.6659 19.8856 14.5416 19.8071 14.4318C19.7286 14.3221 19.6289 14.2292 19.5139 14.1586C17.7609 13.1056 16.6779 11.8836 16.2339 10.7156L18.0999 9.31563C18.3121 9.1565 18.4524 8.9196 18.4899 8.65705C18.5274 8.3945 18.4591 8.1278 18.2999 7.91562C18.1408 7.70345 17.9039 7.56318 17.6414 7.52568C17.3788 7.48817 17.1121 7.55649 16.8999 7.71562L15.9999 8.39062V6.51562C15.9999 4.92433 15.3678 3.3982 14.2426 2.27298C13.1174 1.14777 11.5912 0.515625 9.99994 0.515625Z" fill="url(#paint0_linear_606_1181)"/>
<defs>
<linearGradient id="paint0_linear_606_1181" x1="-3.20189" y1="22.2183" x2="21.1687" y2="21.3461" gradientUnits="userSpaceOnUse">
<stop stop-color="#090EDB"/>
<stop offset="1" stop-color="#E73DC4"/>
</linearGradient>
</defs>
</svg>
